<svg width="21" height="21" viewBox="0 0 21 21" fill="none" xmlns="http://www.w3.org/2000/svg">
<path d="M10.5 1.5C10.5727 1.5 10.645 1.50132 10.7168 1.50293C10.3433 1.90395 10.0212 2.35796 9.75391 2.86523C9.28411 3.75705 9.0498 4.72125 9.0498 5.75C9.0498 7.46443 9.65621 8.93746 10.8594 10.1406C12.0625 11.3438 13.5356 11.9502 15.25 11.9502C16.2949 11.9502 17.2648 11.7168 18.1504 11.2451C18.6511 10.9784 19.0985 10.6561 19.4961 10.2842C19.4977 10.3557 19.5 10.4276 19.5 10.5C19.5 13.0078 18.6284 15.1236 16.876 16.876C15.1236 18.6284 13.0078 19.5 10.5 19.5C7.99221 19.5 5.87641 18.6284 4.12402 16.876C2.37163 15.1236 1.5 13.0078 1.5 10.5C1.5 7.99221 2.37163 5.87641 4.12402 4.12402C5.87641 2.37163 7.99221 1.5 10.5 1.5Z" fill="#0075C9" stroke="#0075C9"/>
</svg>
