<svg width="22" height="22" viewBox="0 0 22 22" fill="none" xmlns="http://www.w3.org/2000/svg">
<path d="M10.8 19.8C9.57005 19.8 8.40755 19.5637 7.31255 19.0912C6.21755 18.6187 5.2613 17.9737 4.4438 17.1562C3.6263 16.3387 2.9813 15.3825 2.5088 14.2875C2.0363 13.1925 1.80005 12.03 1.80005 10.8C1.80005 9.555 2.0363 8.38875 2.5088 7.30125C2.9813 6.21375 3.6263 5.26125 4.4438 4.44375C5.2613 3.62625 6.21755 2.98125 7.31255 2.50875C8.40755 2.03625 9.57005 1.8 10.8 1.8C12.045 1.8 13.2113 2.03625 14.2988 2.50875C15.3863 2.98125 16.3388 3.62625 17.1563 4.44375C17.9738 5.26125 18.6188 6.21375 19.0913 7.30125C19.5638 8.38875 19.8 9.555 19.8 10.8C19.8 12.03 19.5638 13.1925 19.0913 14.2875C18.6188 15.3825 17.9738 16.3387 17.1563 17.1562C16.3388 17.9737 15.3863 18.6187 14.2988 19.0912C13.2113 19.5637 12.045 19.8 10.8 19.8ZM10.8 17.955C11.19 17.415 11.5275 16.8525 11.8125 16.2675C12.0975 15.6825 12.33 15.06 12.51 14.4H9.09005C9.27005 15.06 9.50255 15.6825 9.78755 16.2675C10.0725 16.8525 10.41 17.415 10.8 17.955ZM8.46005 17.595C8.19005 17.1 7.9538 16.5862 7.7513 16.0537C7.5488 15.5212 7.38005 14.97 7.24505 14.4H4.59005C5.02505 15.15 5.5688 15.8025 6.2213 16.3575C6.8738 16.9125 7.62005 17.325 8.46005 17.595ZM13.14 17.595C13.98 17.325 14.7263 16.9125 15.3788 16.3575C16.0313 15.8025 16.575 15.15 17.01 14.4H14.355C14.22 14.97 14.0513 15.5212 13.8488 16.0537C13.6463 16.5862 13.41 17.1 13.14 17.595ZM3.82505 12.6H6.88505C6.84005 12.3 6.8063 12.0037 6.7838 11.7112C6.7613 11.4187 6.75005 11.115 6.75005 10.8C6.75005 10.485 6.7613 10.1812 6.7838 9.88875C6.8063 9.59625 6.84005 9.3 6.88505 9H3.82505C3.75005 9.3 3.6938 9.59625 3.6563 9.88875C3.6188 10.1812 3.60005 10.485 3.60005 10.8C3.60005 11.115 3.6188 11.4187 3.6563 11.7112C3.6938 12.0037 3.75005 12.3 3.82505 12.6ZM8.68505 12.6H12.915C12.96 12.3 12.9938 12.0037 13.0163 11.7112C13.0388 11.4187 13.05 11.115 13.05 10.8C13.05 10.485 13.0388 10.1812 13.0163 9.88875C12.9938 9.59625 12.96 9.3 12.915 9H8.68505C8.64005 9.3 8.6063 9.59625 8.5838 9.88875C8.5613 10.1812 8.55005 10.485 8.55005 10.8C8.55005 11.115 8.5613 11.4187 8.5838 11.7112C8.6063 12.0037 8.64005 12.3 8.68505 12.6ZM14.715 12.6H17.775C17.85 12.3 17.9063 12.0037 17.9438 11.7112C17.9813 11.4187 18 11.115 18 10.8C18 10.485 17.9813 10.1812 17.9438 9.88875C17.9063 9.59625 17.85 9.3 17.775 9H14.715C14.76 9.3 14.7938 9.59625 14.8163 9.88875C14.8388 10.1812 14.85 10.485 14.85 10.8C14.85 11.115 14.8388 11.4187 14.8163 11.7112C14.7938 12.0037 14.76 12.3 14.715 12.6ZM14.355 7.2H17.01C16.575 6.45 16.0313 5.7975 15.3788 5.2425C14.7263 4.6875 13.98 4.275 13.14 4.005C13.41 4.5 13.6463 5.01375 13.8488 5.54625C14.0513 6.07875 14.22 6.63 14.355 7.2ZM9.09005 7.2H12.51C12.33 6.54 12.0975 5.9175 11.8125 5.3325C11.5275 4.7475 11.19 4.185 10.8 3.645C10.41 4.185 10.0725 4.7475 9.78755 5.3325C9.50255 5.9175 9.27005 6.54 9.09005 7.2ZM4.59005 7.2H7.24505C7.38005 6.63 7.5488 6.07875 7.7513 5.54625C7.9538 5.01375 8.19005 4.5 8.46005 4.005C7.62005 4.275 6.8738 4.6875 6.2213 5.2425C5.5688 5.7975 5.02505 6.45 4.59005 7.2Z" fill="#0075C9"/>
</svg>
