<svg width="22" height="22" viewBox="0 0 22 22" fill="none" xmlns="http://www.w3.org/2000/svg">
<path d="M11 13.75C11.7638 13.75 12.4132 13.4826 12.9479 12.9479C13.4826 12.4132 13.75 11.7639 13.75 11C13.75 10.2361 13.4826 9.5868 12.9479 9.05208C12.4132 8.51736 11.7638 8.25 11 8.25C10.2361 8.25 9.58676 8.51736 9.05204 9.05208C8.51732 9.5868 8.24996 10.2361 8.24996 11C8.24996 11.7639 8.51732 12.4132 9.05204 12.9479C9.58676 13.4826 10.2361 13.75 11 13.75ZM11 15.5833C9.7319 15.5833 8.651 15.1365 7.75725 14.2427C6.8635 13.349 6.41663 12.2681 6.41663 11C6.41663 9.73194 6.8635 8.65104 7.75725 7.75729C8.651 6.86354 9.7319 6.41667 11 6.41667C12.268 6.41667 13.3489 6.86354 14.2427 7.75729C15.1364 8.65104 15.5833 9.73194 15.5833 11C15.5833 12.2681 15.1364 13.349 14.2427 14.2427C13.3489 15.1365 12.268 15.5833 11 15.5833ZM4.58329 11.9167H0.916626V10.0833H4.58329V11.9167ZM21.0833 11.9167H17.4166V10.0833H21.0833V11.9167ZM10.0833 4.58333V0.916666H11.9166V4.58333H10.0833ZM10.0833 21.0833V17.4167H11.9166V21.0833H10.0833ZM5.86663 7.10417L3.55204 4.88125L4.85829 3.52917L7.05829 5.82083L5.86663 7.10417ZM17.1416 18.4708L14.9187 16.1562L16.1333 14.8958L18.4479 17.1187L17.1416 18.4708ZM14.8958 5.86667L17.1187 3.55208L18.4708 4.85833L16.1791 7.05833L14.8958 5.86667ZM3.52913 17.1417L5.84371 14.9187L7.10413 16.1333L4.88121 18.4479L3.52913 17.1417Z" fill="white"/>
</svg>
