<svg width="149" height="85" viewBox="0 0 149 85" fill="none" xmlns="http://www.w3.org/2000/svg">
<path d="M4.89637 84.0482H1.45581V77.9189H4.89637V78.5509H2.17201V80.5259H4.72785V81.1532H2.17201V83.407H4.89637V84.0482Z" fill="#003B71"/>
<path d="M13.8278 84.0482H13.0133L11.3562 81.353L9.66635 84.0482H8.90802L10.9583 80.8465L9.04377 77.9189H9.83487L11.3702 80.3446L12.915 77.9189H13.678L11.7635 80.8186L13.8278 84.0482Z" fill="#003B71"/>
<path d="M20.812 78.4726C20.1332 78.4726 19.5996 78.6956 19.2064 79.1464C18.8132 79.5971 18.6166 80.2059 18.6166 80.9865C18.6166 81.7858 18.8038 82.4085 19.183 82.8453C19.5621 83.2821 20.1005 83.5005 20.8026 83.5005C21.2333 83.5005 21.7248 83.4215 22.2771 83.2682V83.8955C21.8465 84.0535 21.3222 84.1325 20.6949 84.1325C19.7868 84.1325 19.0847 83.8583 18.5885 83.31C18.0923 82.7617 17.8489 81.9856 17.8489 80.9773C17.8489 80.3453 17.9659 79.7923 18.2046 79.3183C18.4434 78.8443 18.7851 78.4772 19.2345 78.2216C19.6838 77.9661 20.2128 77.8359 20.8213 77.8359C21.472 77.8359 22.0337 77.9521 22.5205 78.1891L22.2163 78.8025C21.7435 78.5794 21.2754 78.4726 20.812 78.4726Z" fill="#003B71"/>
<path d="M30.5204 84.0482H27.0798V77.9189H30.5204V78.5509H27.796V80.5259H30.3565V81.1532H27.796V83.407H30.5204V84.0482Z" fill="#003B71"/>
<path d="M35.3465 84.0482V77.9189H36.0627V83.4023H38.7871V84.0482H35.3465Z" fill="#003B71"/>
<path d="M43.2902 84.0482V77.9189H44.0064V83.4023H46.7308V84.0482H43.2902Z" fill="#003B71"/>
<path d="M54.6745 84.0482H51.2339V77.9189H54.6745V78.5509H51.9501V80.5259H54.5106V81.1532H51.9501V83.407H54.6745V84.0482Z" fill="#003B71"/>
<path d="M64.3221 84.0485H63.5029L60.1279 78.909H60.0951C60.1419 79.5131 60.1653 80.0661 60.1653 80.5679V84.0531H59.5006V77.9238H60.3105L63.6761 83.0447H63.7089C63.7042 82.9704 63.6902 82.7241 63.6714 82.3198C63.6527 81.9109 63.6434 81.6181 63.6527 81.4415V77.9238H64.3221V84.0485Z" fill="#003B71"/>
<path d="M71.3764 84.0485H70.6602V78.5558H68.7036V77.9238H73.3284V78.5558H71.3717V84.0485H71.3764Z" fill="#003B71"/>
<path d="M83.4207 84.0482V77.9189H84.1369V84.0482H83.4207Z" fill="#003B71"/>
<path d="M94.1122 84.0485H93.293L89.918 78.909H89.8852C89.932 79.5131 89.9554 80.0661 89.9554 80.5679V84.0531H89.2907V77.9238H90.1006L93.4662 83.0447H93.499C93.4943 82.9704 93.4803 82.7241 93.4615 82.3198C93.4428 81.9109 93.4334 81.6181 93.4428 81.4415V77.9238H94.1122V84.0485Z" fill="#003B71"/>
<path d="M107.612 78.4726C106.934 78.4726 106.4 78.6956 106.007 79.1464C105.613 79.5971 105.417 80.2059 105.417 80.9865C105.417 81.7858 105.609 82.4085 105.983 82.8453C106.362 83.2821 106.901 83.5005 107.603 83.5005C108.034 83.5005 108.525 83.4215 109.077 83.2682V83.8955C108.651 84.0535 108.123 84.1325 107.495 84.1325C106.587 84.1325 105.885 83.8583 105.389 83.31C104.893 82.7617 104.649 81.9856 104.649 80.9773C104.649 80.3453 104.771 79.7923 105.005 79.3183C105.244 78.8443 105.585 78.4772 106.035 78.2216C106.484 77.9661 107.013 77.8359 107.622 77.8359C108.268 77.8359 108.834 77.9521 109.321 78.1891L109.017 78.8025C108.548 78.5794 108.08 78.4726 107.612 78.4726Z" fill="#003B71"/>
<path d="M119.235 80.9768C119.235 81.9573 118.987 82.7287 118.486 83.2909C117.985 83.8532 117.293 84.132 116.403 84.132C115.495 84.132 114.793 83.8579 114.297 83.3049C113.801 82.7519 113.557 81.9759 113.557 80.9675C113.557 79.973 113.805 79.197 114.297 78.6487C114.793 78.1003 115.495 77.8262 116.408 77.8262C117.293 77.8262 117.985 78.105 118.486 78.6626C118.987 79.2202 119.235 79.9916 119.235 80.9768ZM114.32 80.9768C114.32 81.8039 114.498 82.4359 114.854 82.8634C115.21 83.2909 115.725 83.5047 116.403 83.5047C117.087 83.5047 117.602 83.2909 117.953 82.8634C118.304 82.4359 118.477 81.8086 118.477 80.9721C118.477 80.1496 118.304 79.5223 117.953 79.0948C117.606 78.6673 117.091 78.4535 116.413 78.4535C115.729 78.4535 115.21 78.6673 114.854 79.0948C114.498 79.5362 114.32 80.1589 114.32 80.9768Z" fill="#003B71"/>
<path d="M124.071 84.0482V77.9189H124.787V83.4023H127.511V84.0482H124.071Z" fill="#003B71"/>
<path d="M137.374 80.9768C137.374 81.9573 137.126 82.7287 136.625 83.2909C136.124 83.8532 135.432 84.132 134.542 84.132C133.634 84.132 132.932 83.8579 132.436 83.3049C131.94 82.7519 131.696 81.9759 131.696 80.9675C131.696 79.973 131.944 79.197 132.441 78.6487C132.937 78.1003 133.639 77.8262 134.552 77.8262C135.436 77.8262 136.129 78.105 136.63 78.6626C137.126 79.2202 137.374 79.9916 137.374 80.9768ZM132.455 80.9768C132.455 81.8039 132.632 82.4359 132.988 82.8634C133.344 83.2909 133.859 83.5047 134.542 83.5047C135.226 83.5047 135.741 83.2909 136.092 82.8634C136.438 82.4359 136.616 81.8086 136.616 80.9721C136.616 80.1496 136.443 79.5223 136.096 79.0948C135.75 78.6673 135.235 78.4535 134.552 78.4535C133.868 78.4535 133.349 78.6673 132.993 79.0948C132.632 79.5362 132.455 80.1589 132.455 80.9768Z" fill="#003B71"/>
<path d="M142.926 81.4968V84.0433H142.21V77.9141H143.904C144.658 77.9141 145.22 78.0581 145.58 78.3462C145.94 78.6343 146.123 79.0665 146.123 79.6474C146.123 80.4559 145.711 81.0043 144.883 81.2877L146.558 84.0433H145.711L144.218 81.4968H142.926ZM142.926 80.8881H143.909C144.414 80.8881 144.784 80.7859 145.023 80.586C145.262 80.3862 145.379 80.0842 145.379 79.6892C145.379 79.2849 145.257 78.9921 145.018 78.8156C144.78 78.639 144.391 78.546 143.862 78.546H142.931V80.8881H142.926Z" fill="#003B71"/>
<path d="M91.5049 52.701C91.6734 52.8311 91.7577 53.017 91.7577 53.2586C91.7577 53.4816 91.6828 53.6815 91.533 53.858C91.3832 54.0346 91.1772 54.1229 90.9151 54.1229C90.7091 54.1229 90.4751 54.0114 90.2082 53.7883C88.7805 52.5197 86.8941 51.8878 84.5489 51.8878C82.8965 51.8878 81.3517 52.3246 79.9193 53.2028C78.4822 54.0764 77.3447 55.2475 76.4975 56.7113C75.6549 58.175 75.2289 59.7364 75.2289 61.3907C75.2289 63.1054 75.6455 64.6947 76.4834 66.1584C77.3167 67.6222 78.4542 68.7793 79.8912 69.639C81.3283 70.494 82.8824 70.9262 84.5489 70.9262C86.763 70.9262 88.7056 70.2431 90.3767 68.8862C90.5078 68.7932 90.6482 68.7468 90.798 68.7468C91.0227 68.7468 91.224 68.8304 91.4066 68.9977C91.5845 69.165 91.6734 69.3695 91.6734 69.6157C91.6734 69.8574 91.6079 70.0526 91.4768 70.2013C89.8618 71.8044 87.5541 72.6037 84.5489 72.6037C82.5781 72.6037 80.7479 72.0972 79.058 71.0795C77.3682 70.0665 76.0247 68.6957 75.0323 66.9716C74.0399 65.2476 73.5391 63.3889 73.5391 61.3953C73.5391 59.4018 74.0306 57.5477 75.0183 55.833C76.0013 54.1183 77.3354 52.7521 79.0159 51.7391C80.6964 50.7214 82.5407 50.2149 84.5489 50.2149C87.1749 50.2102 89.4967 51.042 91.5049 52.701Z" fill="#003B71"/>
<path d="M105.89 57.8819C107.088 58.565 108.034 59.4991 108.717 60.6933C109.405 61.8829 109.747 63.2166 109.747 64.6897C109.747 66.1441 109.405 67.4639 108.717 68.6581C108.034 69.8477 107.088 70.7864 105.89 71.4649C104.687 72.148 103.357 72.4825 101.892 72.4825C100.408 72.4825 99.0694 72.1433 97.8664 71.4649C96.6634 70.7818 95.7225 69.8477 95.0391 68.6581C94.351 67.4639 94.0139 66.1441 94.0139 64.6897C94.0139 63.2166 94.3556 61.8829 95.0391 60.6933C95.7225 59.4991 96.6681 58.565 97.8664 57.8819C99.0694 57.2035 100.408 56.8643 101.892 56.8643C103.357 56.8643 104.687 57.2035 105.89 57.8819ZM98.7371 59.2528C97.8009 59.8058 97.0566 60.5539 96.5136 61.5019C95.9706 62.4499 95.6991 63.514 95.6991 64.6897C95.6991 65.8607 95.9706 66.9248 96.5136 67.8775C97.0566 68.8301 97.8009 69.5736 98.7371 70.1126C99.6733 70.6517 100.727 70.9212 101.892 70.9212C103.058 70.9212 104.106 70.6517 105.047 70.1126C105.983 69.5736 106.723 68.8254 107.257 67.8775C107.79 66.9295 108.057 65.8653 108.057 64.6897C108.057 63.514 107.79 62.4545 107.257 61.5019C106.723 60.5493 105.983 59.8011 105.047 59.2528C104.111 58.7044 103.058 58.4303 101.892 58.4303C100.727 58.4303 99.678 58.7044 98.7371 59.2528Z" fill="#003B71"/>
<path d="M113.646 50.7172C113.805 50.5685 114.007 50.4941 114.255 50.4941C114.517 50.4941 114.723 50.5685 114.873 50.7172C115.022 50.8659 115.097 51.0704 115.097 51.3352V67.711C115.097 68.566 115.28 69.2723 115.65 69.8207C116.015 70.369 116.488 70.6432 117.073 70.6432H117.775C117.981 70.6432 118.149 70.7175 118.28 70.8662C118.411 71.0149 118.477 71.2194 118.477 71.4843C118.477 71.7259 118.402 71.9257 118.252 72.0837C118.102 72.2417 117.897 72.3207 117.634 72.3207H117.073C116.001 72.3207 115.125 71.8932 114.442 71.0335C113.754 70.1785 113.417 69.0679 113.417 67.7063V51.3306C113.407 51.0704 113.487 50.8659 113.646 50.7172Z" fill="#003B71"/>
<path d="M131.762 57.8819C132.96 58.565 133.906 59.4991 134.589 60.6933C135.277 61.8829 135.619 63.2166 135.619 64.6897C135.619 66.1441 135.277 67.4639 134.589 68.6581C133.906 69.8477 132.96 70.7864 131.762 71.4649C130.559 72.148 129.229 72.4825 127.764 72.4825C126.28 72.4825 124.941 72.1433 123.738 71.4649C122.535 70.7818 121.595 69.8477 120.911 68.6581C120.223 67.4639 119.886 66.1441 119.886 64.6897C119.886 63.2166 120.228 61.8829 120.911 60.6933C121.595 59.4991 122.54 58.565 123.738 57.8819C124.941 57.2035 126.28 56.8643 127.764 56.8643C129.229 56.8643 130.563 57.2035 131.762 57.8819ZM124.614 59.2528C123.678 59.8058 122.933 60.5539 122.39 61.5019C121.847 62.4499 121.576 63.514 121.576 64.6897C121.576 65.8607 121.847 66.9248 122.39 67.8775C122.933 68.8301 123.678 69.5736 124.614 70.1126C125.55 70.6517 126.603 70.9212 127.769 70.9212C128.934 70.9212 129.983 70.6517 130.924 70.1126C131.86 69.5736 132.6 68.8254 133.133 67.8775C133.667 66.9295 133.934 65.8653 133.934 64.6897C133.934 63.514 133.667 62.4545 133.133 61.5019C132.6 60.5493 131.86 59.8011 130.924 59.2528C129.988 58.7044 128.934 58.4303 127.769 58.4303C126.603 58.4303 125.55 58.7044 124.614 59.2528Z" fill="#003B71"/>
<path d="M148.515 57.7851C148.515 57.878 148.506 57.9524 148.487 58.0081C148.431 58.2126 148.342 58.3567 148.22 58.4403C148.099 58.5239 147.935 58.5658 147.724 58.5658C147.556 58.5658 147.336 58.5472 147.064 58.51C146.793 58.4728 146.563 58.4542 146.371 58.4542C145.435 58.4542 144.597 58.6494 143.867 59.0398C143.137 59.4301 142.561 59.9691 142.149 60.6615C141.737 61.3493 141.531 62.1253 141.531 62.9803V71.4749C141.531 71.7165 141.456 71.9164 141.306 72.0744C141.157 72.2323 140.951 72.3113 140.689 72.3113C140.445 72.3113 140.244 72.2323 140.08 72.0744C139.921 71.9164 139.841 71.7165 139.841 71.4749V57.8641C139.841 57.6039 139.921 57.3994 140.08 57.2507C140.239 57.102 140.44 57.0276 140.689 57.0276C140.951 57.0276 141.157 57.102 141.306 57.2507C141.456 57.3994 141.531 57.6039 141.531 57.8641V59.5974C142.074 58.7424 142.767 58.0685 143.614 57.5853C144.457 57.102 145.379 56.8604 146.371 56.8604C147.799 56.865 148.515 57.1717 148.515 57.7851Z" fill="#003B71"/>
<path d="M11.08 51.1907C12.2222 51.8459 13.0694 52.6266 13.6124 53.5374C13.6873 53.6675 13.7248 53.8162 13.7248 53.9835C13.7248 54.1322 13.6827 54.267 13.5984 54.3878C13.5141 54.5086 13.3971 54.6062 13.2473 54.6806C13.1724 54.7177 13.0601 54.7363 12.9103 54.7363C12.5733 54.7363 12.3111 54.5969 12.1239 54.3181C11.0192 52.6963 9.41356 51.8878 7.31178 51.8878C5.75299 51.8878 4.53592 52.2363 3.66525 52.9333C2.79458 53.635 2.35924 54.6062 2.35924 55.8562C2.35924 56.8971 2.7899 57.7754 3.65121 58.4817C4.51252 59.1927 5.84661 59.6946 7.64881 59.992C10.0127 60.3823 11.74 61.1072 12.8307 62.1574C13.9167 63.2077 14.4644 64.5924 14.4644 66.3072C14.4644 67.5943 14.1789 68.7096 13.6078 69.6622C13.032 70.6102 12.2269 71.3398 11.1877 71.8416C10.1485 72.3435 8.94078 72.5944 7.56923 72.5944C5.80448 72.5944 4.27379 72.2366 2.98182 71.521C1.68517 70.8054 0.720879 69.8202 0.0842588 68.5702C0.0280863 68.4587 0 68.3471 0 68.2356C0 68.0126 0.0795786 67.8267 0.238734 67.6733C0.397889 67.5246 0.608535 67.4503 0.870673 67.4503C1.24516 67.4503 1.52134 67.6269 1.68517 67.98C2.19072 68.9094 2.94905 69.6343 3.95079 70.1455C4.95253 70.6567 6.16024 70.9122 7.56923 70.9122C9.18419 70.9122 10.4574 70.5126 11.3843 69.7087C12.3111 68.9094 12.7792 67.7709 12.7792 66.2979C12.7792 65.0339 12.3252 63.9837 11.4124 63.1519C10.4996 62.3247 9.1561 61.7857 7.37263 61.5441C5.28957 61.2467 3.65121 60.5729 2.45754 59.518C1.26388 58.4678 0.669388 57.1852 0.669388 55.675C0.669388 54.5969 0.945571 53.6396 1.49793 52.8125C2.05029 51.9853 2.83203 51.3394 3.83377 50.884C4.83551 50.4286 5.99641 50.1963 7.31178 50.1963C8.67864 50.2102 9.93784 50.5402 11.08 51.1907Z" fill="#003B71"/>
<path d="M26.4105 70.8522C26.5696 71.0102 26.6492 71.2194 26.6492 71.4842C26.6492 71.7259 26.5696 71.9257 26.4105 72.0837C26.2513 72.2417 26.0407 72.3207 25.7785 72.3207H25.1279C24.098 72.3207 23.1759 72.0883 22.3707 71.619C21.5656 71.1496 20.9337 70.5177 20.4843 69.7045C20.0349 68.8912 19.8102 67.9758 19.8102 66.9535V59.1002H17.6148C17.3901 59.1002 17.2076 59.0305 17.0625 58.8911C16.922 58.7517 16.8518 58.5704 16.8518 58.3427C16.8518 58.1197 16.922 57.9385 17.0625 57.7991C17.2029 57.6596 17.3854 57.5899 17.6148 57.5899H19.8102V53.036C19.8102 52.7757 19.8898 52.5666 20.049 52.404C20.2081 52.246 20.4094 52.167 20.6528 52.167C20.9149 52.167 21.1256 52.246 21.2894 52.404C21.4486 52.562 21.5282 52.7711 21.5282 53.036V57.5899H25.2449C25.4696 57.5899 25.6522 57.6596 25.7926 57.7991C25.933 57.9385 26.0032 58.1197 26.0032 58.3427C26.0032 58.5658 25.933 58.747 25.7926 58.8911C25.6522 59.0305 25.4696 59.1002 25.2449 59.1002H21.5282V66.9535C21.5282 68.0316 21.8652 68.9145 22.5439 69.5929C23.218 70.2714 24.0934 70.6106 25.1606 70.6106H25.7832C26.0407 70.6153 26.2513 70.6943 26.4105 70.8522Z" fill="#003B71"/>
<path d="M41.2071 57.8819C42.4054 58.565 43.351 59.4991 44.0344 60.6933C44.7225 61.8829 45.0643 63.2166 45.0643 64.6897V71.4788C45.0643 71.7205 44.9894 71.9203 44.8396 72.0783C44.6898 72.2363 44.4838 72.3153 44.2217 72.3153C43.9783 72.3153 43.7723 72.2363 43.6131 72.0783C43.454 71.9203 43.3744 71.7205 43.3744 71.4788V69.2994C42.7518 70.2846 41.9046 71.0652 40.8279 71.6322C39.7466 72.2037 38.5436 72.4825 37.2095 72.4825C35.7256 72.4825 34.3868 72.1433 33.1838 71.4649C31.9808 70.7818 31.0399 69.8477 30.3564 68.6581C29.6683 67.4639 29.3313 66.1441 29.3313 64.6897C29.3313 63.2166 29.673 61.8829 30.3564 60.6933C31.0399 59.4991 31.9854 58.565 33.1838 57.8819C34.3868 57.2035 35.7256 56.8643 37.2095 56.8643C38.6746 56.8643 40.0041 57.2035 41.2071 57.8819ZM40.3598 70.1126C41.296 69.5736 42.0356 68.8254 42.5693 67.8775C43.1029 66.9295 43.3697 65.8653 43.3697 64.6897C43.3697 63.514 43.1029 62.4545 42.5693 61.5019C42.0356 60.5493 41.296 59.8011 40.3598 59.2528C39.4236 58.7044 38.3704 58.4303 37.2048 58.4303C36.0392 58.4303 34.9907 58.7044 34.0498 59.2528C33.1136 59.8058 32.3693 60.5539 31.8263 61.5019C31.2833 62.4499 31.0118 63.514 31.0118 64.6897C31.0118 65.8607 31.2833 66.9248 31.8263 67.8775C32.3693 68.8254 33.1136 69.5736 34.0498 70.1126C34.986 70.6517 36.0392 70.9212 37.2048 70.9212C38.3751 70.9212 39.4236 70.6517 40.3598 70.1126Z" fill="#003B71"/>
<path d="M57.9559 57.7851C57.9559 57.878 57.9466 57.9524 57.9279 58.0081C57.8717 58.2126 57.7827 58.3567 57.661 58.4403C57.5393 58.5239 57.3755 58.5658 57.1695 58.5658C57.001 58.5658 56.781 58.5472 56.5048 58.51C56.2333 58.4728 56.0039 58.4542 55.8167 58.4542C54.8805 58.4542 54.0426 58.6494 53.3124 59.0398C52.5821 59.4301 52.0063 59.9691 51.5944 60.6615C51.1825 61.3493 50.9718 62.1253 50.9718 62.9803V71.4749C50.9718 71.7165 50.8969 71.9164 50.7471 72.0744C50.5973 72.2323 50.3914 72.3113 50.1246 72.3113C49.8812 72.3113 49.6799 72.2323 49.5207 72.0744C49.3616 71.9164 49.282 71.7165 49.282 71.4749V57.8641C49.282 57.6039 49.3616 57.3994 49.5207 57.2507C49.6799 57.102 49.8812 57.0276 50.1246 57.0276C50.3867 57.0276 50.5927 57.102 50.7471 57.2507C50.8969 57.3994 50.9718 57.6039 50.9718 57.8641V59.5974C51.5148 58.7424 52.2123 58.0685 53.0549 57.5853C53.8975 57.102 54.8196 56.8604 55.812 56.8604C57.2444 56.865 57.9559 57.1717 57.9559 57.7851Z" fill="#003B71"/>
<path d="M69.2044 70.8522C69.3636 71.0102 69.4432 71.2194 69.4432 71.4842C69.4432 71.7259 69.3636 71.9257 69.2044 72.0837C69.0453 72.2417 68.8346 72.3207 68.5678 72.3207H67.9218C66.892 72.3207 65.9698 72.0883 65.1647 71.619C64.3595 71.1543 63.7276 70.5177 63.2782 69.7045C62.8289 68.8959 62.5995 67.9758 62.5995 66.9535V59.1002H60.4041C60.1794 59.1002 59.9968 59.0305 59.8564 58.8911C59.716 58.7517 59.6458 58.5704 59.6458 58.3427C59.6458 58.1197 59.716 57.9385 59.8564 57.7991C59.9968 57.6596 60.1794 57.5899 60.4041 57.5899H62.5995V53.036C62.5995 52.7757 62.6791 52.5666 62.8382 52.404C62.9974 52.246 63.1987 52.167 63.4421 52.167C63.7042 52.167 63.9149 52.246 64.074 52.404C64.2332 52.562 64.3127 52.7711 64.3127 53.036V57.5899H68.0295C68.2542 57.5899 68.4367 57.6596 68.5772 57.7991C68.7176 57.9385 68.7878 58.1197 68.7878 58.3427C68.7878 58.5658 68.7176 58.747 68.5772 58.8911C68.4367 59.0305 68.2542 59.1002 68.0295 59.1002H64.3127V66.9535C64.3127 68.0316 64.6498 68.9145 65.3238 69.5929C66.0026 70.2714 66.8733 70.6106 67.9405 70.6106H68.5584C68.8346 70.6153 69.0453 70.6943 69.2044 70.8522Z" fill="#003B71"/>
<path d="M33.6613 8.04382C33.6613 7.52336 34.0873 7.10049 34.6116 7.10049C35.1358 7.10049 35.5618 7.52336 35.5618 8.04382C35.5618 8.56427 35.1358 8.98714 34.6116 8.98714C34.0873 8.98714 33.6613 8.56892 33.6613 8.04382ZM18.3403 19.1453C17.7692 19.1453 17.3105 19.6053 17.3105 20.1676C17.3105 20.7345 17.7739 21.1899 18.3403 21.1899C18.9114 21.1899 19.3701 20.7299 19.3701 20.1676C19.3701 19.6007 18.9114 19.1453 18.3403 19.1453ZM26.4759 18.4111C25.4976 18.4111 24.7065 19.1964 24.7065 20.1676C24.7065 21.1388 25.4976 21.9242 26.4759 21.9242C27.4543 21.9242 28.2454 21.1388 28.2454 20.1676C28.2454 19.1964 27.4543 18.4111 26.4759 18.4111ZM34.6116 22.6584C35.9971 22.6584 37.1206 21.5431 37.1206 20.1676C37.1206 18.7921 35.9971 17.6769 34.6116 17.6769C33.226 17.6769 32.1025 18.7921 32.1025 20.1676C32.1025 21.5431 33.226 22.6584 34.6116 22.6584ZM24.7065 23.9363C24.1822 23.9363 23.7562 24.3591 23.7562 24.8796C23.7562 25.4001 24.1822 25.8229 24.7065 25.8229C25.2308 25.8229 25.6567 25.4001 25.6567 24.8796C25.6567 24.3545 25.2308 23.9363 24.7065 23.9363ZM38.8245 27.2309C38.8245 28.5321 39.8871 29.5823 41.1931 29.5823C42.5038 29.5823 43.5617 28.5274 43.5617 27.2309C43.5617 25.9344 42.4991 24.8796 41.1931 24.8796C39.8824 24.8796 38.8245 25.9298 38.8245 27.2309ZM49.7313 10.0838C50.8641 10.0838 51.7863 9.17302 51.7863 8.04382C51.7863 6.91461 50.8688 6.00382 49.7313 6.00382C48.5985 6.00382 47.6763 6.91461 47.6763 8.04382C47.6763 9.17302 48.5985 10.0838 49.7313 10.0838ZM52.3339 5.64136C52.8582 5.64136 53.2842 5.21849 53.2842 4.69803C53.2842 4.17758 52.8582 3.75471 52.3339 3.75471C51.8097 3.75471 51.3837 4.17758 51.3837 4.69803C51.3837 5.21849 51.8097 5.64136 52.3339 5.64136ZM44.0345 9.54012C44.8677 9.54012 45.5371 8.87097 45.5371 8.04846C45.5371 7.22131 44.863 6.5568 44.0345 6.5568C43.2059 6.5568 42.5319 7.22596 42.5319 8.04846C42.5272 8.87097 43.2013 9.54012 44.0345 9.54012ZM34.0592 13.1043C34.0592 14.0383 34.8222 14.8004 35.7678 14.8004C36.7087 14.8004 37.4717 14.043 37.4717 13.1043C37.4717 12.1656 36.7087 11.4082 35.7678 11.4082C34.8269 11.4128 34.0592 12.1703 34.0592 13.1043ZM30.1505 13.1043C30.1505 12.5327 29.6824 12.068 29.1067 12.068C28.5309 12.068 28.0628 12.5327 28.0628 13.1043C28.0628 13.6759 28.5309 14.1406 29.1067 14.1406C29.6871 14.1406 30.1505 13.6759 30.1505 13.1043ZM38.8245 13.1043C38.8245 14.4054 39.8871 15.4556 41.1931 15.4556C42.5038 15.4556 43.5617 14.4008 43.5617 13.1043C43.5617 11.8078 42.4991 10.753 41.1931 10.753C39.8824 10.753 38.8245 11.8032 38.8245 13.1043ZM46.0005 20.1676C46.0005 18.3832 44.5447 16.9427 42.7519 16.9427C40.9544 16.9427 39.5032 18.3879 39.5032 20.1676C39.5032 21.9474 40.959 23.3926 42.7519 23.3926C44.5447 23.3926 46.0005 21.9474 46.0005 20.1676ZM100.066 36.9523C99.7201 38.2395 98.5404 39.1875 97.1361 39.1875C95.4603 39.1875 94.1028 37.8352 94.1028 36.1763C94.1028 34.5173 95.465 33.165 97.1361 33.165C98.5404 33.165 99.7201 34.113 100.066 35.4002H116.459C117.592 33.3788 118.243 31.0507 118.243 28.5646C118.243 28.1231 118.219 27.6863 118.182 27.2542H110.215L107.762 29.6892C107.612 29.8332 107.416 29.9169 107.205 29.9169H104.008C103.989 29.9169 103.97 29.9122 103.952 29.9122C103.605 31.1994 102.426 32.152 101.021 32.152C99.3456 32.152 97.9881 30.7998 97.9881 29.1408C97.9881 27.4819 99.3503 26.1296 101.021 26.1296C102.426 26.1296 103.605 27.0822 103.952 28.3694C103.97 28.3694 103.989 28.3648 104.008 28.3648H106.882L109.335 25.9298C109.485 25.7857 109.681 25.7021 109.892 25.7021H117.953C117.784 24.8796 117.536 24.0803 117.227 23.3182H104.776C104.57 23.3182 104.368 23.2346 104.219 23.0905L100.169 19.0709H95.9284C95.582 20.3581 94.4024 21.3061 92.9981 21.3061C91.3223 21.3061 89.9648 19.9539 89.9648 18.2949C89.9648 16.636 91.327 15.2837 92.9981 15.2837C94.4024 15.2837 95.5773 16.2317 95.9284 17.5189H100.497C100.703 17.5189 100.904 17.6025 101.054 17.7466L105.103 21.7662H116.492C114.067 17.3934 109.382 14.424 103.999 14.424C103.61 14.424 103.24 14.5077 102.856 14.5402C99.9869 6.09211 91.9589 0 82.4798 0C78.4962 0 74.7701 1.07808 71.573 2.94615C69.9674 1.78906 68.0014 1.09667 65.8621 1.09667C63.9008 1.09667 62.0752 1.67289 60.5445 2.66733C60.2309 2.8718 58.7095 3.764 57.6095 5.6553C57.1835 5.3579 56.6639 5.18131 56.1022 5.18131C54.6557 5.18131 53.4808 6.34769 53.4808 7.78359C53.4808 8.46204 53.757 9.06614 54.183 9.53083C54.0893 9.51689 54.0051 9.46577 53.9115 9.46112C52.8957 9.38213 51.9595 9.71206 51.248 10.3022C50.5083 10.9156 49.4738 11.0504 48.6547 10.5485C48.0508 10.1814 47.3065 10.0141 46.5154 10.1535C45.3124 10.3673 44.3341 11.3199 44.1 12.5095C43.7208 14.438 45.2001 16.1248 47.0725 16.1248C47.6904 16.1248 48.2615 15.9436 48.7389 15.6276C49.4879 15.135 50.4896 15.2605 51.159 15.8506C51.2807 15.9575 51.4071 16.0505 51.5382 16.1434C51.5148 16.2038 51.5007 16.2642 51.482 16.3246C51.056 16.2224 50.602 16.1899 50.1339 16.2363C48.2942 16.4222 46.7916 17.8999 46.5903 19.7262C46.3235 22.1147 48.2006 24.1407 50.5552 24.1407C51.0373 24.1407 51.4867 24.0246 51.9127 23.8712C51.8705 23.9595 51.8144 24.0339 51.7722 24.1222C51.5943 24.229 51.3931 24.3034 51.2339 24.4335C50.499 25.0469 49.4692 25.1724 48.65 24.6705C48.0461 24.3034 47.2972 24.1361 46.5107 24.2755C45.3077 24.4893 44.3294 25.4419 44.0953 26.6315C43.7162 28.56 45.1954 30.2468 47.0678 30.2468C47.6482 30.2468 48.1866 30.0841 48.65 29.8053C49.3521 29.3778 50.1994 29.4336 50.8969 29.8379C50.9062 29.9494 50.9156 30.0609 50.9296 30.1678C50.5692 29.9773 50.1713 29.8425 49.736 29.8425C48.2989 29.8425 47.1333 30.9996 47.1333 32.4262C47.1333 33.8528 48.2989 35.0099 49.736 35.0099C50.602 35.0099 51.3369 34.5591 51.8097 33.9132C52.0016 34.3872 52.2216 34.8426 52.4603 35.2887C51.805 35.8789 51.3884 36.7292 51.3884 37.6772C51.3884 38.0118 51.4399 38.3324 51.5335 38.6391C54.314 35.14 58.5972 32.9745 63.2829 32.9745H72.879C74.0633 32.9745 75.2476 33.3695 76.0949 34.192C76.5443 34.6288 77.106 34.9727 77.752 35.1679C78.1452 35.2841 78.5384 35.3398 78.9269 35.3398C80.9163 35.3398 82.7373 33.8714 82.962 31.6873C83.1398 29.9773 82.227 28.4066 80.6542 27.6817C80.0878 27.4215 79.498 27.296 78.9269 27.296C77.8456 27.296 76.8204 27.7282 76.0668 28.4763C75.271 29.2663 74.1569 29.6659 73.0335 29.6659H64.514C55.5405 29.6659 50.3211 22.6909 52.9238 14.1638C54.4685 9.10331 59.1683 5.63671 64.4953 5.63671H94.4024C92.6096 11.5151 90.1052 15.5346 83.9216 15.5346H72.7667C71.5917 15.5346 70.4168 15.1536 69.5648 14.3497C68.961 13.7828 68.1746 13.3878 67.2477 13.2762C67.0886 13.2577 66.9341 13.2484 66.7749 13.2484C65.2021 13.2484 63.7182 14.1963 63.0769 15.6462C62.0845 17.8999 63.311 20.4325 65.6094 21.1202C65.9979 21.2364 66.3958 21.2922 66.7843 21.2922C67.8843 21.2922 68.9329 20.8414 69.6865 20.0747C70.4964 19.2475 71.6479 18.8479 72.8088 18.8479H79.9146C88.8179 18.8479 95.1982 25.8926 92.6189 34.35C92.6189 34.35 91.0882 40.4468 85.4008 42.7052H103.755C103.839 42.7052 106.47 42.4821 106.47 42.4821C110.14 41.8408 113.328 39.8194 115.458 36.9709H100.066V36.9523ZM31.1944 24.8796C31.1944 24.308 30.7263 23.8433 30.1505 23.8433C29.5748 23.8433 29.1067 24.308 29.1067 24.8796C29.1067 25.4512 29.5748 25.9159 30.1505 25.9159C30.7263 25.9112 31.1944 25.4512 31.1944 24.8796ZM46.2814 32.403C46.2814 31.2784 45.3639 30.363 44.2264 30.363C43.0889 30.363 42.1714 31.2738 42.1714 32.403C42.1714 33.5322 43.0889 34.443 44.2264 34.443C45.3639 34.443 46.2814 33.5322 46.2814 32.403ZM99.5562 29.1362C99.5562 29.9401 100.216 30.5953 101.021 30.5953C101.827 30.5953 102.487 29.9401 102.487 29.1362C102.487 28.3323 101.827 27.6817 101.021 27.6817C100.216 27.6817 99.5562 28.3323 99.5562 29.1362ZM95.671 36.1763C95.671 36.9802 96.331 37.6307 97.1361 37.6307C97.9413 37.6307 98.606 36.9755 98.606 36.1763C98.606 35.377 97.9459 34.7218 97.1361 34.7218C96.3263 34.7218 95.671 35.3723 95.671 36.1763ZM42.1714 36.1763C41.3382 36.1763 40.6688 36.8454 40.6688 37.6679C40.6688 38.4951 41.3429 39.1596 42.1714 39.1596C43 39.1596 43.674 38.4904 43.674 37.6679C43.6787 36.8454 43.0047 36.1763 42.1714 36.1763ZM91.5329 18.2856C91.5329 19.0895 92.193 19.7448 92.9981 19.7448C93.8032 19.7448 94.4633 19.0895 94.4633 18.2856C94.4633 17.4817 93.8032 16.8311 92.9981 16.8311C92.193 16.8311 91.5329 17.4817 91.5329 18.2856ZM49.7313 37.6679C49.7313 36.5434 48.8138 35.6279 47.6763 35.6279C46.5388 35.6279 45.6213 36.5387 45.6213 37.6679C45.6213 38.7971 46.5388 39.7079 47.6763 39.7079C48.8138 39.7079 49.7313 38.7971 49.7313 37.6679ZM37.4717 27.2309C37.4717 26.2969 36.7087 25.5348 35.7678 25.5348C34.8269 25.5348 34.0592 26.2923 34.0592 27.2309C34.0592 28.165 34.8222 28.9271 35.7678 28.9271C36.7087 28.9224 37.4717 28.165 37.4717 27.2309ZM36.0018 36.7199C35.4729 36.7199 35.0469 37.1428 35.0469 37.6679C35.0469 38.193 35.4729 38.6159 36.0018 38.6159C36.5308 38.6159 36.9568 38.193 36.9568 37.6679C36.9568 37.1475 36.5308 36.7199 36.0018 36.7199ZM31.5033 30.8974C30.7544 30.8974 30.1505 31.4968 30.1505 32.2403C30.1505 32.9838 30.7544 33.5833 31.5033 33.5833C32.2523 33.5833 32.8562 32.9838 32.8562 32.2403C32.8562 31.4968 32.2523 30.8974 31.5033 30.8974ZM41.7501 32.389C41.7501 31.5619 41.0761 30.8974 40.2475 30.8974C39.419 30.8974 38.7449 31.5665 38.7449 32.389C38.7449 33.2115 39.419 33.8807 40.2475 33.8807C41.0761 33.8807 41.7501 33.2162 41.7501 32.389ZM36.9568 31.4271C36.4278 31.4271 36.0018 31.85 36.0018 32.3751C36.0018 32.9002 36.4278 33.3231 36.9568 33.3231C37.4857 33.3231 37.9117 32.9002 37.9117 32.3751C37.9117 31.85 37.4857 31.4271 36.9568 31.4271ZM39.7794 8.04382C39.7794 7.51871 39.3534 7.09584 38.8245 7.09584C38.2955 7.09584 37.8696 7.51871 37.8696 8.04382C37.8696 8.56892 38.2955 8.99179 38.8245 8.99179C39.3534 8.99643 39.7794 8.56892 39.7794 8.04382ZM27.4215 31.4271C27.4215 31.9476 27.0002 32.3658 26.4759 32.3658C25.9516 32.3658 25.5303 31.9476 25.5303 31.4271C25.5303 30.9067 25.9516 30.4884 26.4759 30.4884C27.0002 30.4884 27.4215 30.9067 27.4215 31.4271Z" fill="url(#paint0_radial_277_2968)"/>
<defs>
<radialGradient id="paint0_radial_277_2968" cx="0" cy="0" r="1" gradientUnits="userSpaceOnUse" gradientTransform="translate(108.211 39.0574) scale(39.4654 39.1777)">
<stop offset="0.176" stop-color="#54C8E8"/>
<stop offset="1" stop-color="#0075C9"/>
</radialGradient>
</defs>
</svg>
