<svg width="21" height="21" viewBox="0 0 21 21" fill="none" xmlns="http://www.w3.org/2000/svg">
<path d="M10.5 0.5C10.6203 0.5 10.7394 0.5019 10.8574 0.505859C10.4133 0.965933 10.035 1.49317 9.72266 2.08594C9.20735 3.06397 8.9502 4.1211 8.9502 5.25C8.9502 7.13109 9.61376 8.74657 10.9336 10.0664C12.2534 11.3862 13.8689 12.0498 15.75 12.0498C16.8967 12.0498 17.9599 11.7934 18.9307 11.2764C19.5161 10.9646 20.0366 10.5861 20.4932 10.1436C20.4971 10.2613 20.5 10.3801 20.5 10.5C20.5 13.2856 19.5308 15.6372 17.584 17.584C15.6372 19.5308 13.2856 20.5 10.5 20.5C7.71443 20.5 5.36285 19.5308 3.41602 17.584C1.46918 15.6372 0.5 13.2856 0.5 10.5C0.5 7.71443 1.46918 5.36285 3.41602 3.41602C5.36285 1.46918 7.71443 0.5 10.5 0.5Z" fill="#0075C9" stroke="#0075C9"/>
</svg>
