<svg width="16" height="16" viewBox="0 0 16 16" fill="none" xmlns="http://www.w3.org/2000/svg">
<path d="M3.00002 11.0002C2.00002 11.8402 1.66669 14.3335 1.66669 14.3335C1.66669 14.3335 4.16002 14.0002 5.00002 13.0002C5.47335 12.4402 5.46669 11.5802 4.94002 11.0602C4.68089 10.8129 4.33955 10.67 3.9815 10.6589C3.62346 10.6478 3.27394 10.7694 3.00002 11.0002Z" stroke="#0075C9" stroke-linecap="round" stroke-linejoin="round"/>
<path d="M8 9.99984L6 7.99984C6.35476 7.07946 6.80147 6.19722 7.33333 5.36651C8.11012 4.1245 9.19175 3.10187 10.4753 2.3959C11.7589 1.68993 13.2018 1.32409 14.6667 1.33317C14.6667 3.14651 14.1467 6.33317 10.6667 8.66651C9.82459 9.19899 8.93123 9.64567 8 9.99984Z" stroke="#0075C9" stroke-linecap="round" stroke-linejoin="round"/>
<path d="M6.00002 7.99985H2.66669C2.66669 7.99985 3.03335 5.97985 4.00002 5.33318C5.08002 4.61318 7.33335 5.33318 7.33335 5.33318" stroke="#0075C9" stroke-linecap="round" stroke-linejoin="round"/>
<path d="M8 9.99984V13.3332C8 13.3332 10.02 12.9665 10.6667 11.9998C11.3867 10.9198 10.6667 8.6665 10.6667 8.6665" stroke="#0075C9" stroke-linecap="round" stroke-linejoin="round"/>
</svg>
