<svg width="24" height="17" viewBox="0 0 24 17" fill="none" xmlns="http://www.w3.org/2000/svg">
<path d="M23.4917 2.58602C23.3524 2.08782 23.0867 1.63402 22.7205 1.26862C22.3543 0.903224 21.9 0.638524 21.4015 0.500224C19.5302 2.43187e-05 12.0077 2.40393e-05 12.0077 2.40393e-05C12.0077 2.40393e-05 4.4995 -0.0119757 2.6087 0.500224C2.111 0.639124 1.65759 0.904124 1.29221 1.26942C0.926838 1.63482 0.661888 2.08832 0.522988 2.58602C0.167638 4.50162 -0.00737214 6.44642 0.000237859 8.39472C-0.00322214 10.3337 0.171768 12.2688 0.522988 14.1757C0.662338 14.6737 0.927358 15.1275 1.29261 15.4935C1.65786 15.8596 2.1111 16.1256 2.6087 16.266C4.48 16.7662 12.0077 16.7662 12.0077 16.7662C12.0077 16.7662 19.5115 16.7662 21.4015 16.266C21.9 16.1262 22.3541 15.8604 22.7201 15.4944C23.0862 15.1283 23.3519 14.6742 23.4917 14.1757C23.836 12.27 24.004 10.332 23.992 8.39472C24.004 6.44472 23.8397 4.50372 23.4917 2.58602ZM9.6047 11.985V4.78872L15.8665 8.39472L9.6047 11.985Z" fill="#0075C9"/>
</svg>
